mtllib PipeMap.mtl
# vertices
v -64 -48 -128
v -64 -48 128
v -64 -16 128
v -64 -16 -128
v 64 -16 128
v 64 -48 128
v 64 -48 -128
v 64 -16 -128
v -64 -16 128
v -64 -16 144
v -64 160 144
v -64 160 128
v 64 160 144
v 64 -16 144
v 64 -16 128
v 64 160 128
v -64 -16 -144
v -64 -16 -128
v -64 160 -128
v -64 160 -144
v 64 160 -128
v 64 -16 -128
v 64 -16 -144
v 64 160 -144
v 64 -16 -128
v 64 -16 128
v 64 176 128
v 64 176 -128
v 80 176 128
v 80 -16 128
v 80 -16 -128
v 80 176 -128
v -80 -16 -128
v -80 -16 128
v -80 176 128
v -80 176 -128
v -64 176 128
v -64 -16 128
v -64 -16 -128
v -64 176 -128
v -64 160 64
v -64 160 128
v -64 176 128
v -64 176 64
v 64 176 128
v 64 160 128
v 64 160 64
v 64 176 64
v -64 160 -128
v -64 160 -0
v -64 176 -0
v -64 176 -128
v 64 176 -0
v 64 160 -0
v 64 160 -128
v 64 176 -128
v -16 118.62741699796776 160
v -16 118.62741699796786 32
v -16 105.37258300202858 32
v -16 105.37258300202859 160
v -6.6274169979660655 128 22.627416997962428
v -6.627416997967773 128 160
v -6.6274169979733415 96 160
v -6.6274169979714355 96 22.62741699796416
v 12 101.37258300202716 4
v 6.627416997969505 96 9.37258300202322
v 6.627416997969501 128 9.372583002026863
v 12 122.62741699797104 4
v 16 118.62741699797225 160
v 6.6274169979733415 128 160
v 6.627416997973144 96 160
v 16 105.37258300203048 160
v 16 118.62741699796867 8
v 16 105.37258300203048 8
v -64 105.37258300203051 -0
v -64 96 9.372583002030488
v -64 96 22.627416997966066
v -64 105.37258300203393 32
v -64 118.62741699796953 32
v -64 128 22.62741699796952
v -64 128 9.37258300203047
v -64 118.62741699796958 -0
v -16 118.62741699796953 32
v -16 105.37258300203393 32
v -6.62741699796608 96 22.627416997966073
v -6.6274169979733415 128 22.62741699796952
v 6.627416997969505 96 9.372583002030488
v 6.6274169979660655 128 9.372583002030478
v 8 118.62741699796958 -0
v 12 122.62741699796882 4
v 12 101.3725830020305 4
v 8 105.37258300203051 -0

# texture coordinates
vt 4 -1.5
vt -4 -1.5
vt -4 -0.5
vt 4 -0.5
vt 2 -0.5
vt -2 -0.5
vt -2 -1.5
vt 2 -1.5
vt 2 -4
vt -2 -4
vt -2 4
vt 2 4
vt 1 2
vt -1 2
vt -1 -2
vt 1 -2
vt -4.5 -0.5
vt -4.5 5
vt -4 5
vt 0.15238096 0.3809524
vt -0.15238096 0.3809524
vt -0.15238096 -0.03809524
vt 0.15238096 -0.03809524
vt 2 -4.5
vt -2 -4.5
vt 0.15238096 -0.30476192
vt -0.15238096 -0.30476192
vt -0.15238096 -0.34285715
vt 0.15238096 -0.34285715
vt 0.9904762 -0
vt -1.4476191 -0
vt -1.4476191 3.352381
vt 0.9904762 3.352381
vt 0.30476192 -0.03809524
vt 0.26666668 -0.03809524
vt 0.26666668 0.3809524
vt 0.30476192 0.3809524
vt 2 3.5
vt -2 3.5
vt 0.15238096 0.30476192
vt -0.15238096 0.30476192
vt -0.15238096 0.26666668
vt 0.15238096 0.26666668
vt 2.5142858 -0
vt -2.3619049 -0
vt -2.3619049 3.6571429
vt 2.5142858 3.6571429
vt -0.1904762 0.41904762
vt -0.15238096 0.41904762
vt -0.1904762 -0.03809524
vt -4 -2.5
vt -4 -2
vt 4 -2
vt 4 -2.5
vt 2.4380953 -1.5238096
vt 2.4380953 -1.2190477
vt -2.4380953 -1.2190477
vt -2.4380953 -1.5238096
vt 0.30476192 0.41904762
vt -0.30476192 0.41904762
vt -0.30476192 -0.03809524
vt 0.114285715 0.41904762
vt 0.15238096 0.41904762
vt 0.114285715 -0.03809524
vt -4 1.5
vt -4 2
vt 4 2
vt 4 1.5
vt 2.4380953 1.1809524
vt 2.4380953 1.4857143
vt -2.4380953 1.4857143
vt -2.4380953 1.1809524
vt 2 -5.5
vt 4 -5.5
vt 4 -6
vt 2 -6
vt 0.15238096 -0.45714286
vt -0.15238096 -0.45714286
vt -0.15238096 -0.41904762
vt 0.15238096 -0.41904762
vt -1 1
vt 1 1
vt 0.15238096 0.15238096
vt -0.15238096 0.15238096
vt 1.2190477 3.0095239
vt -1.2190477 3.0095239
vt -1.2190477 3.3142858
vt 1.2190477 3.3142858
vt -0.30476192 -0.41904762
vt 0 -0.41904762
vt 0 -0.45714286
vt -0.30476192 -0.45714286
vt 1.2190477 -0
vt -1.2190477 -0
vt -1.2190477 -2.4380953
vt 1.2190477 -2.4380953
vt -0.15238096 -0
vt 0.15238096 -0
vt -1.0059754 0.64761907
vt -1.0059754 -0.5714286
vt -0.87973887 -0.5714286
vt -0.87973887 0.64761907
vt -1.0952381 -0.66069126
vt -1.0952381 0.64761907
vt 0.81741357 -0.5714286
vt 0.90667623 -0.5714286
vt 0.90667623 0.64761907
vt 0.81741357 0.73688173
vt 0.08571429 -1.8416437
vt 0.034546826 -1.7904762
vt -0.09168968 -1.7904762
vt -0.18095239 -1.8797389
vt -0.18095239 -2.0059752
vt -0.09168968 -2.0952382
vt 0.034546826 -2.0952382
vt 0.08571429 -2.0440705
vt 0.049253073 0.15238096
vt 0.03809524 0.1635388
vt 0.03809524 0.17931835
vt 0.049253073 0.1904762
vt 0.06503264 0.1904762
vt 0.07619048 0.17931835
vt 0.07619048 0.1635388
vt 0.06503264 0.15238096
vt 0.041643646 0.64761907
vt 0.16788016 0.64761907
vt 0.16788016 -0.66069126
vt 0.041643646 -0.7869278
vt -0.047619056 -0.8
vt -0.009523818 -0.83809525
vt 0.04164364 -0.7869278
vt 0.04164364 0.64761907
vt -0.047619056 0.64761907
vt 0.04761905 -1.8797389
vt 0.04761905 -2.0059752
vt -0.87973887 -0.8
vt -1.0059754 -0.8
vt 1.1678802 0.1904762
vt 1.1678802 0.64761907
vt 1.0416436 0.64761907
vt 1.0416436 0.1904762
vt 0.95238096 0.64761907
vt 0.95238096 0.10121349
vt -0.0059753964 0.10121349
vt -0.0059753964 0.64761907
vt -0.0952381 0.64761907
vt -0.0952381 0.1904762
vt 0.12026111 0.64761907
vt 0.12026111 -0.02502302
vt -0.18258642 0.114285715
vt -0.18258642 -0.5714286
vt -0.093323715 -0.5714286
vt -0.093323715 0.10121349
vt -0.14449118 0.15238096
vt 1.0035484 -0.07619048
vt 0.95238096 -0.02502302
vt 1.0416436 -0.03809524
vt 1.1678802 -0.03809524
vt 0 1.2059754
vt -0.051167462 1.2571429
vt -0.17740397 1.2571429
vt -0.26666668 1.1678802
vt -0.26666668 1.0416436
vt -0.17740397 0.95238096
vt -0.051167462 0.95238096
vt 0 1.0035484
vt 0.03809524 1.0416436
vt 0.03809524 1.1678802

# normals
vn -1 0 -0
vn 0 0 1
vn 0 -1 -0
vn 0 1 -0
vn 0 0 -1
vn 1 0 -0
vn -0.7071067811865481 0.707106781186547 6.280369834735096e-16
vn -0.7071067811865481 -0.707106781186547 -0
vn -0.7071067811865475 0 -0.7071067811865475
vn 0.7071067811865465 0.7071067811865486 -0
vn 0.7071067811865469 -0.707106781186548 -0
vn 0.7071067811865475 0 -0.7071067811865475
vn 0 -0.7071067811865465 0.7071067811865486
vn 0 0.7071067811865481 0.707106781186547
vn -0 0.7071067811865477 -0.7071067811865472
vn 0 -0.7071067811865469 -0.707106781186548
vn 0.7071067811865475 0 0.7071067811865475

o entity0_brush0
usemtl __TB_empty
f  1/1/1  2/2/1  3/3/1  4/4/1
usemtl __TB_empty
f  5/5/2  3/6/2  2/7/2  6/8/2
usemtl __TB_empty
f  6/9/3  2/10/3  1/11/3  7/12/3
usemtl engine7/portal2Metal
f  8/13/4  4/14/4  3/15/4  5/16/4
usemtl __TB_empty
f  7/8/5  1/7/5  4/6/5  8/5/5
usemtl __TB_empty
f  8/4/6  5/3/6  6/2/6  7/1/6

o entity0_brush1
usemtl __TB_empty
f  9/3/1  10/17/1  11/18/1  12/19/1
usemtl engine7/portal2
f  13/20/2  11/21/2  10/22/2  14/23/2
usemtl __TB_empty
f  14/24/3  10/25/3  9/10/3  15/9/3
usemtl engine7/portal2
f  16/26/4  12/27/4  11/28/4  13/29/4
usemtl engine7/portal2
f  15/30/5  9/31/5  12/32/5  16/33/5
usemtl __TB_empty
f  16/19/6  13/18/6  14/17/6  15/3/6

o entity0_brush2
usemtl engine7/portal2
f  17/34/1  18/35/1  19/36/1  20/37/1
usemtl engine7/portal2
f  21/33/2  19/32/2  18/31/2  22/30/2
usemtl __TB_empty
f  22/38/3  18/39/3  17/11/3  23/12/3
usemtl engine7/portal2
f  24/40/4  20/41/4  19/42/4  21/43/4
usemtl engine7/portal2
f  23/23/5  17/22/5  20/21/5  24/20/5
usemtl engine7/portal2
f  24/37/6  21/36/6  22/35/6  23/34/6

o entity0_brush3
usemtl engine7/portal2
f  25/44/1  26/45/1  27/46/1  28/47/1
usemtl engine7/portal2
f  29/48/2  27/49/2  26/22/2  30/50/2
usemtl __TB_empty
f  30/51/3  26/52/3  25/53/3  31/54/3
usemtl engine7/portal2
f  32/55/4  28/56/4  27/57/4  29/58/4
usemtl engine7/portal2
f  31/50/5  25/22/5  28/49/5  32/48/5
usemtl engine7/portal2
f  32/59/6  29/60/6  30/61/6  31/34/6

o entity0_brush4
usemtl engine7/portal2
f  33/34/1  34/61/1  35/60/1  36/59/1
usemtl engine7/portal2
f  37/62/2  35/63/2  34/23/2  38/64/2
usemtl __TB_empty
f  38/65/3  34/66/3  33/67/3  39/68/3
usemtl engine7/portal2
f  40/69/4  36/70/4  35/71/4  37/72/4
usemtl engine7/portal2
f  39/64/5  33/23/5  36/63/5  40/62/5
usemtl engine7/portal2
f  40/47/6  37/46/6  38/45/6  39/44/6

o entity0_brush5
usemtl __TB_empty
f  41/73/1  42/74/1  43/75/1  44/76/1
usemtl engine7/portal2
f  45/77/2  43/78/2  42/79/2  46/80/2
usemtl engine7/portal2Metal
f  46/13/3  42/14/3  41/81/3  47/82/3
usemtl engine7/portal2
f  48/83/4  44/84/4  43/41/4  45/40/4
usemtl engine7/portal2
f  47/85/5  41/86/5  44/87/5  48/88/5
usemtl __TB_empty
f  48/76/6  45/75/6  46/74/6  47/73/6

o entity0_brush6
usemtl engine7/portal2
f  49/89/1  50/90/1  51/91/1  52/92/1
usemtl engine7/portal2
f  53/88/2  51/87/2  50/86/2  54/85/2
usemtl engine7/portal2
f  54/93/3  50/94/3  49/95/3  55/96/3
usemtl engine7/portal2
f  56/26/4  52/27/4  51/97/4  53/98/4
usemtl engine7/portal2
f  55/80/5  49/79/5  52/78/5  56/77/5
usemtl engine7/portal2
f  56/92/6  53/91/6  54/90/6  55/89/6

o entity0_brush7
usemtl engine7/portal2
f  57/99/1  58/100/1  59/101/1  60/102/1
usemtl engine7/portal2
f  61/103/7  58/100/7  57/99/7  62/104/7
usemtl engine7/portal2
f  63/105/8  60/106/8  59/107/8  64/108/8
usemtl engine7/portal2
f  65/109/9  66/110/9  64/111/9  59/112/9  58/113/9  61/114/9  67/115/9  68/116/9
usemtl engine7/portal2
f  69/117/2  70/118/2  62/119/2  57/120/2  60/121/2  63/122/2  71/123/2  72/124/2
usemtl engine7/portal2
f  71/125/3  63/126/3  64/127/3  66/128/3
usemtl engine7/portal2
f  67/128/4  61/127/4  62/126/4  70/125/4
usemtl engine7/portal2
f  73/129/10  68/130/10  67/131/10  70/132/10  69/133/10
usemtl engine7/portal2
f  72/133/11  71/132/11  66/131/11  65/130/11  74/129/11
usemtl engine7/portal2
f  74/134/12  65/109/12  68/116/12  73/135/12
usemtl engine7/portal2
f  69/99/6  72/102/6  74/136/6  73/137/6

o entity0_brush8
usemtl engine7/portal2
f  75/123/1  76/124/1  77/117/1  78/118/1  79/119/1  80/120/1  81/121/1  82/122/1
usemtl engine7/portal2
f  83/138/2  79/139/2  78/140/2  84/141/2
usemtl engine7/portal2
f  84/141/13  78/140/13  77/142/13  85/143/13
usemtl engine7/portal2
f  86/144/14  80/145/14  79/146/14  83/147/14
usemtl engine7/portal2
f  85/144/3  77/145/3  76/148/3  87/149/3
usemtl engine7/portal2
f  88/149/4  81/148/4  80/145/4  86/144/4
usemtl engine7/portal2
f  89/150/15  82/151/15  81/152/15  88/153/15  90/154/15
usemtl engine7/portal2
f  91/155/16  87/156/16  76/142/16  75/140/16  92/157/16
usemtl engine7/portal2
f  92/157/5  75/140/5  82/139/5  89/158/5
usemtl engine7/portal2
f  90/159/17  88/160/17  86/161/17  83/162/17  84/163/17  85/164/17  87/165/17  91/166/17
usemtl engine7/portal2
f  92/167/12  89/168/12  90/159/12  91/166/12

