mtllib PipeMap.mtl
# vertices
v -64 -48 -128
v -64 -48 128
v -64 -16 128
v -64 -16 -128
v 64 -16 128
v 64 -48 128
v 64 -48 -128
v 64 -16 -128
v -64 -16 128
v -64 -16 144
v -64 160 144
v -64 160 128
v 64 160 144
v 64 -16 144
v 64 -16 128
v 64 160 128
v -64 -16 -144
v -64 -16 -128
v -64 160 -128
v -64 160 -144
v 64 160 -128
v 64 -16 -128
v 64 -16 -144
v 64 160 -144
v 64 -16 -128
v 64 -16 128
v 64 176 128
v 64 176 -128
v 80 176 128
v 80 -16 128
v 80 -16 -128
v 80 176 -128
v -80 -16 -128
v -80 -16 128
v -80 176 128
v -80 176 -128
v -64 176 128
v -64 -16 128
v -64 -16 -128
v -64 176 -128
v -64 160 64
v -64 160 128
v -64 176 128
v -64 176 64
v 64 176 128
v 64 160 128
v 64 160 64
v 64 176 64
v -64 160 -128
v -64 160 -0
v -64 176 -0
v -64 176 -128
v 64 176 -0
v 64 160 -0
v 64 160 -128
v 64 176 -128
v -16 118.62741699796776 160
v -16 118.62741699796786 32
v -16 105.37258300202858 32
v -16 105.37258300202859 160
v -6.6274169979660655 128 22.627416997962428
v -6.627416997967773 128 160
v -6.6274169979733415 96 160
v -6.6274169979714355 96 22.62741699796416
v 12 101.37258300202716 4
v 6.627416997969505 96 9.37258300202322
v 6.627416997969501 128 9.372583002026863
v 12 122.62741699797104 4
v 16 118.62741699797225 160
v 6.6274169979733415 128 160
v 6.627416997973144 96 160
v 16 105.37258300203048 160
v 16 118.62741699796867 8
v 16 105.37258300203048 8
v -64 105.37258300203051 -0
v -64 96 9.372583002030488
v -64 96 22.627416997966066
v -64 105.37258300203393 32
v -64 118.62741699796953 32
v -64 128 22.62741699796952
v -64 128 9.37258300203047
v -64 118.62741699796958 -0
v -16 118.62741699796953 32
v -16 105.37258300203393 32
v -6.62741699796608 96 22.627416997966073
v -6.6274169979733415 128 22.62741699796952
v 6.627416997969505 96 9.372583002030488
v 6.6274169979660655 128 9.372583002030478
v 8 118.62741699796958 -0
v 12 122.62741699796882 4
v 12 101.3725830020305 4
v 8 105.37258300203051 -0
v -8 -16 -8
v -8 -16 8
v -8 0 8
v -8 0 -8
v 8 0 8
v 8 -16 8
v 8 -16 -8
v 8 0 -8
v -8 0 -8
v -8 0 8
v -8 16 8
v -8 16 -8
v 8 16 8
v 8 0 8
v 8 0 -8
v 8 16 -8

# texture coordinates
vt 4 -1.5
vt -4 -1.5
vt -4 -0.5
vt 4 -0.5
vt 2 -0.5
vt -2 -0.5
vt -2 -1.5
vt 2 -1.5
vt 2 -4
vt -2 -4
vt -2 4
vt 2 4
vt 1 2
vt -1 2
vt -1 -2
vt 1 -2
vt -4.5 -0.5
vt -4.5 5
vt -4 5
vt 0.15238096 0.3809524
vt -0.15238096 0.3809524
vt -0.15238096 -0.03809524
vt 0.15238096 -0.03809524
vt 2 -4.5
vt -2 -4.5
vt 0.15238096 -0.30476192
vt -0.15238096 -0.30476192
vt -0.15238096 -0.34285715
vt 0.15238096 -0.34285715
vt 0.9904762 -0
vt -1.4476191 -0
vt -1.4476191 3.352381
vt 0.9904762 3.352381
vt 0.30476192 -0.03809524
vt 0.26666668 -0.03809524
vt 0.26666668 0.3809524
vt 0.30476192 0.3809524
vt 2 3.5
vt -2 3.5
vt 0.15238096 0.30476192
vt -0.15238096 0.30476192
vt -0.15238096 0.26666668
vt 0.15238096 0.26666668
vt 2.5142858 -0
vt -2.3619049 -0
vt -2.3619049 3.6571429
vt 2.5142858 3.6571429
vt -0.1904762 0.41904762
vt -0.15238096 0.41904762
vt -0.1904762 -0.03809524
vt -4 -2.5
vt -4 -2
vt 4 -2
vt 4 -2.5
vt 2.4380953 -1.5238096
vt 2.4380953 -1.2190477
vt -2.4380953 -1.2190477
vt -2.4380953 -1.5238096
vt 0.30476192 0.41904762
vt -0.30476192 0.41904762
vt -0.30476192 -0.03809524
vt 0.114285715 0.41904762
vt 0.15238096 0.41904762
vt 0.114285715 -0.03809524
vt -4 1.5
vt -4 2
vt 4 2
vt 4 1.5
vt 2.4380953 1.1809524
vt 2.4380953 1.4857143
vt -2.4380953 1.4857143
vt -2.4380953 1.1809524
vt 2 -5.5
vt 4 -5.5
vt 4 -6
vt 2 -6
vt 0.15238096 -0.45714286
vt -0.15238096 -0.45714286
vt -0.15238096 -0.41904762
vt 0.15238096 -0.41904762
vt -1 1
vt 1 1
vt 0.15238096 0.15238096
vt -0.15238096 0.15238096
vt 1.2190477 3.0095239
vt -1.2190477 3.0095239
vt -1.2190477 3.3142858
vt 1.2190477 3.3142858
vt -0.30476192 -0.41904762
vt 0 -0.41904762
vt 0 -0.45714286
vt -0.30476192 -0.45714286
vt 1.2190477 -0
vt -1.2190477 -0
vt -1.2190477 -2.4380953
vt 1.2190477 -2.4380953
vt -0.15238096 -0
vt 0.15238096 -0
vt -1.0059754 0.64761907
vt -1.0059754 -0.5714286
vt -0.87973887 -0.5714286
vt -0.87973887 0.64761907
vt -1.0952381 -0.66069126
vt -1.0952381 0.64761907
vt 0.81741357 -0.5714286
vt 0.90667623 -0.5714286
vt 0.90667623 0.64761907
vt 0.81741357 0.73688173
vt -0.84164363 -0.83809525
vt -0.7904762 -0.7869278
vt -0.7904762 -0.66069126
vt -1.0952381 -0.7869278
vt -1.0440706 -0.83809525
vt 0.049253073 0.15238096
vt 0.03809524 0.1635388
vt 0.03809524 0.17931835
vt 0.049253073 0.1904762
vt 0.06503264 0.1904762
vt 0.07619048 0.17931835
vt 0.07619048 0.1635388
vt 0.06503264 0.15238096
vt 0.041643646 0.64761907
vt 0.16788016 0.64761907
vt 0.16788016 -0.66069126
vt 0.041643646 -0.7869278
vt -0.047619056 -0.8
vt -0.009523818 -0.83809525
vt 0.04164364 -0.7869278
vt 0.04164364 0.64761907
vt -0.047619056 0.64761907
vt -0.87973887 -0.8
vt -1.0059754 -0.8
vt 1.1678802 0.1904762
vt 1.1678802 0.64761907
vt 1.0416436 0.64761907
vt 1.0416436 0.1904762
vt 0.95238096 0.64761907
vt 0.95238096 0.10121349
vt -0.0059753964 0.10121349
vt -0.0059753964 0.64761907
vt -0.0952381 0.64761907
vt -0.0952381 0.1904762
vt 0.12026111 0.64761907
vt 0.12026111 -0.02502302
vt -0.18258642 0.114285715
vt -0.18258642 -0.5714286
vt -0.093323715 -0.5714286
vt -0.093323715 0.10121349
vt -0.14449118 0.15238096
vt 1.0035484 -0.07619048
vt 0.95238096 -0.02502302
vt 1.0416436 -0.03809524
vt 1.1678802 -0.03809524
vt 1.2059754 0.07619048
vt 1.2571429 0.12735793
vt 1.2571429 0.25359446
vt 1.1678802 0.34285715
vt 1.0416436 0.34285715
vt 0.95238096 0.25359446
vt 0.95238096 0.12735793
vt 1.0035484 0.07619048
vt 1.0416436 0.03809524
vt 1.1678802 0.03809524
vt 0.015625 -0.03125
vt -0.015625 -0.03125
vt -0.015625 -0
vt 0.015625 -0
vt 0.015625 -0.015625
vt -0.015625 -0.015625
vt -0.015625 0.015625
vt 0.015625 0.015625
vt 0.01904762 -0
vt -0.01904762 -0
vt -0.01904762 0.03809524
vt 0.01904762 0.03809524
vt 0.01904762 -0.01904762
vt -0.01904762 -0.01904762
vt -0.01904762 0.01904762
vt 0.01904762 0.01904762

# normals
vn -1 0 -0
vn 0 0 1
vn 0 -1 -0
vn 0 1 -0
vn 0 0 -1
vn 1 0 -0
vn -0.7071067811865481 0.707106781186547 6.280369834735096e-16
vn -0.7071067811865481 -0.707106781186547 -0
vn -0.7071067811865475 0 -0.7071067811865475
vn 0.7071067811865465 0.7071067811865486 -0
vn 0.7071067811865469 -0.707106781186548 -0
vn 0.7071067811865475 0 -0.7071067811865475
vn 0 -0.7071067811865465 0.7071067811865486
vn 0 0.7071067811865481 0.707106781186547
vn -0 0.7071067811865477 -0.7071067811865472
vn 0 -0.7071067811865469 -0.707106781186548
vn 0.7071067811865475 0 0.7071067811865475

o entity0_brush0
usemtl __TB_empty
f  1/1/1  2/2/1  3/3/1  4/4/1
usemtl __TB_empty
f  5/5/2  3/6/2  2/7/2  6/8/2
usemtl __TB_empty
f  6/9/3  2/10/3  1/11/3  7/12/3
usemtl engine7/portal2Metal
f  8/13/4  4/14/4  3/15/4  5/16/4
usemtl __TB_empty
f  7/8/5  1/7/5  4/6/5  8/5/5
usemtl __TB_empty
f  8/4/6  5/3/6  6/2/6  7/1/6

o entity0_brush1
usemtl __TB_empty
f  9/3/1  10/17/1  11/18/1  12/19/1
usemtl engine7/portal2
f  13/20/2  11/21/2  10/22/2  14/23/2
usemtl __TB_empty
f  14/24/3  10/25/3  9/10/3  15/9/3
usemtl engine7/portal2
f  16/26/4  12/27/4  11/28/4  13/29/4
usemtl engine7/portal2
f  15/30/5  9/31/5  12/32/5  16/33/5
usemtl __TB_empty
f  16/19/6  13/18/6  14/17/6  15/3/6

o entity0_brush2
usemtl engine7/portal2
f  17/34/1  18/35/1  19/36/1  20/37/1
usemtl engine7/portal2
f  21/33/2  19/32/2  18/31/2  22/30/2
usemtl __TB_empty
f  22/38/3  18/39/3  17/11/3  23/12/3
usemtl engine7/portal2
f  24/40/4  20/41/4  19/42/4  21/43/4
usemtl engine7/portal2
f  23/23/5  17/22/5  20/21/5  24/20/5
usemtl engine7/portal2
f  24/37/6  21/36/6  22/35/6  23/34/6

o entity0_brush3
usemtl engine7/portal2
f  25/44/1  26/45/1  27/46/1  28/47/1
usemtl engine7/portal2
f  29/48/2  27/49/2  26/22/2  30/50/2
usemtl __TB_empty
f  30/51/3  26/52/3  25/53/3  31/54/3
usemtl engine7/portal2
f  32/55/4  28/56/4  27/57/4  29/58/4
usemtl engine7/portal2
f  31/50/5  25/22/5  28/49/5  32/48/5
usemtl engine7/portal2
f  32/59/6  29/60/6  30/61/6  31/34/6

o entity0_brush4
usemtl engine7/portal2
f  33/34/1  34/61/1  35/60/1  36/59/1
usemtl engine7/portal2
f  37/62/2  35/63/2  34/23/2  38/64/2
usemtl __TB_empty
f  38/65/3  34/66/3  33/67/3  39/68/3
usemtl engine7/portal2
f  40/69/4  36/70/4  35/71/4  37/72/4
usemtl engine7/portal2
f  39/64/5  33/23/5  36/63/5  40/62/5
usemtl engine7/portal2
f  40/47/6  37/46/6  38/45/6  39/44/6

o entity0_brush5
usemtl __TB_empty
f  41/73/1  42/74/1  43/75/1  44/76/1
usemtl engine7/portal2
f  45/77/2  43/78/2  42/79/2  46/80/2
usemtl engine7/portal2Metal
f  46/13/3  42/14/3  41/81/3  47/82/3
usemtl engine7/portal2
f  48/83/4  44/84/4  43/41/4  45/40/4
usemtl engine7/portal2
f  47/85/5  41/86/5  44/87/5  48/88/5
usemtl __TB_empty
f  48/76/6  45/75/6  46/74/6  47/73/6

o entity0_brush6
usemtl engine7/portal2
f  49/89/1  50/90/1  51/91/1  52/92/1
usemtl engine7/portal2
f  53/88/2  51/87/2  50/86/2  54/85/2
usemtl engine7/portal2
f  54/93/3  50/94/3  49/95/3  55/96/3
usemtl engine7/portal2
f  56/26/4  52/27/4  51/97/4  53/98/4
usemtl engine7/portal2
f  55/80/5  49/79/5  52/78/5  56/77/5
usemtl engine7/portal2
f  56/92/6  53/91/6  54/90/6  55/89/6

o entity0_brush7
usemtl engine7/portal2
f  57/99/1  58/100/1  59/101/1  60/102/1
usemtl engine7/portal2
f  61/103/7  58/100/7  57/99/7  62/104/7
usemtl engine7/portal2
f  63/105/8  60/106/8  59/107/8  64/108/8
usemtl engine7/portal2
f  65/109/9  66/110/9  64/111/9  59/101/9  58/100/9  61/103/9  67/112/9  68/113/9
usemtl engine7/portal2
f  69/114/2  70/115/2  62/116/2  57/117/2  60/118/2  63/119/2  71/120/2  72/121/2
usemtl engine7/portal2
f  71/122/3  63/123/3  64/124/3  66/125/3
usemtl engine7/portal2
f  67/125/4  61/124/4  62/123/4  70/122/4
usemtl engine7/portal2
f  73/126/10  68/127/10  67/128/10  70/129/10  69/130/10
usemtl engine7/portal2
f  72/130/11  71/129/11  66/128/11  65/127/11  74/126/11
usemtl engine7/portal2
f  74/131/12  65/109/12  68/113/12  73/132/12
usemtl engine7/portal2
f  69/99/6  72/102/6  74/131/6  73/132/6

o entity0_brush8
usemtl engine7/portal2
f  75/120/1  76/121/1  77/114/1  78/115/1  79/116/1  80/117/1  81/118/1  82/119/1
usemtl engine7/portal2
f  83/133/2  79/134/2  78/135/2  84/136/2
usemtl engine7/portal2
f  84/136/13  78/135/13  77/137/13  85/138/13
usemtl engine7/portal2
f  86/139/14  80/140/14  79/141/14  83/142/14
usemtl engine7/portal2
f  85/139/3  77/140/3  76/143/3  87/144/3
usemtl engine7/portal2
f  88/144/4  81/143/4  80/140/4  86/139/4
usemtl engine7/portal2
f  89/145/15  82/146/15  81/147/15  88/148/15  90/149/15
usemtl engine7/portal2
f  91/150/16  87/151/16  76/137/16  75/135/16  92/152/16
usemtl engine7/portal2
f  92/152/5  75/135/5  82/134/5  89/153/5
usemtl engine7/portal2
f  90/154/17  88/155/17  86/156/17  83/157/17  84/158/17  85/159/17  87/160/17  91/161/17
usemtl engine7/portal2
f  92/162/12  89/163/12  90/154/12  91/161/12

o entity0_brush9
usemtl engine7/portal2Metal
f  93/164/1  94/165/1  95/166/1  96/167/1
usemtl engine7/portal2Metal
f  97/167/2  95/166/2  94/165/2  98/164/2
usemtl engine7/portal2Metal
f  98/168/3  94/169/3  93/170/3  99/171/3
usemtl engine7/portal2Metal
f  100/171/4  96/170/4  95/169/4  97/168/4
usemtl engine7/portal2Metal
f  99/164/5  93/165/5  96/166/5  100/167/5
usemtl engine7/portal2Metal
f  100/167/6  97/166/6  98/165/6  99/164/6

o entity0_brush10
usemtl engine7/portal2
f  101/172/1  102/173/1  103/174/1  104/175/1
usemtl engine7/portal2
f  105/175/2  103/174/2  102/173/2  106/172/2
usemtl engine7/portal2
f  106/176/3  102/177/3  101/178/3  107/179/3
usemtl engine7/portal2
f  108/179/4  104/178/4  103/177/4  105/176/4
usemtl engine7/portal2
f  107/172/5  101/173/5  104/174/5  108/175/5
usemtl engine7/portal2
f  108/175/6  105/174/6  106/173/6  107/172/6

