mtllib PipeMap.mtl
# vertices
v -64 -48 -128
v -64 -48 128
v -64 -16 128
v -64 -16 -128
v 64 -16 128
v 64 -48 128
v 64 -48 -128
v 64 -16 -128
v -64 -16 128
v -64 -16 144
v -64 160 144
v -64 160 128
v 64 160 144
v 64 -16 144
v 64 -16 128
v 64 160 128
v -64 -16 -144
v -64 -16 -128
v -64 160 -128
v -64 160 -144
v 64 160 -128
v 64 -16 -128
v 64 -16 -144
v 64 160 -144
v 64 -16 -128
v 64 -16 128
v 64 160 128
v 64 160 -128
v 80 160 128
v 80 -16 128
v 80 -16 -128
v 80 160 -128
v -80 -16 -128
v -80 -16 128
v -80 160 128
v -80 160 -128
v -64 160 128
v -64 -16 128
v -64 -16 -128
v -64 160 -128
v -64 105.37258300203051 -16
v -64 96 -6.627416997969512
v -64 96 6.6274169979733415
v -64 105.37258300202666 16
v -64 118.62741699796953 16
v -64 128 6.627416997969519
v -64 128 -6.627416997969529
v -64 118.62741699797064 -16
v 64 118.62741699796953 16
v 64 105.37258300202666 16
v 64 96 6.6274169979733415
v 64 128 6.62741699796952
v 64 96 -6.627416997969512
v 64 128 -6.627416997969516
v 64 118.62741699797063 -16
v 64 105.37258300203051 -16
v -64 160 64
v -64 160 128
v -64 176 128
v -64 176 64
v 64 176 128
v 64 160 128
v 64 160 64
v 64 176 64
v -64 160 -128
v -64 160 -0
v -64 176 -0
v -64 176 -128
v 64 176 -0
v 64 160 -0
v 64 160 -128
v 64 176 -128

# texture coordinates
vt 4 -1.5
vt -4 -1.5
vt -4 -0.5
vt 4 -0.5
vt 2 -0.5
vt -2 -0.5
vt -2 -1.5
vt 2 -1.5
vt 2 -4
vt -2 -4
vt -2 4
vt 2 4
vt 1 2
vt -1 2
vt -1 -2
vt 1 -2
vt -4.5 -0.5
vt -4.5 5
vt -4 5
vt 2 5
vt -2 5
vt 2 -4.5
vt -2 -4.5
vt 0.9904762 -0
vt -1.4476191 -0
vt -1.4476191 3.352381
vt 0.9904762 3.352381
vt 3.5 -0.5
vt 3.5 5
vt 4 5
vt 2 3.5
vt -2 3.5
vt 2.5142858 -0
vt -2.3619049 -0
vt -2.3619049 3.352381
vt 2.5142858 3.352381
vt -2.5 5
vt -2.5 -0.5
vt -4 -2.5
vt -4 -2
vt 4 -2
vt 4 -2.5
vt 1.5 5
vt 1.5 -0.5
vt -4 1.5
vt -4 2
vt 4 2
vt 4 1.5
vt 1 2.1464467
vt 0.8535534 2
vt 0.6464466 2
vt 0.5 2.1464467
vt 0.5 2.3535533
vt 0.6464466 2.5
vt 0.8535534 2.5
vt 1 2.3535533
vt 0.9580267 -0.46875
vt 0.9580267 0.53125
vt 0.8544733 0.53125
vt 0.8544733 -0.46875
vt 0.78125 0.53125
vt 0.78125 -0.46875
vt -0.004901696 -0.46875
vt -0.004901696 0.53125
vt -0.078125 0.53125
vt -0.078125 -0.46875
vt 0.09865169 0.53125
vt 0.09865169 -0.46875
vt -0.14977792 0.53125
vt -0.14977792 -0.46875
vt -0.07655461 -0.46875
vt -0.07655461 0.53125
vt 2 -5.5
vt 4 -5.5
vt 4 -6
vt 2 -6
vt -2 -6
vt -2 -5.5
vt -1 1
vt 1 1
vt 2 2
vt -2 2
vt -4 -5.5
vt 0 -5.5
vt 0 -6
vt -4 -6
vt 1 -0
vt -1 -0
vt -2 -0
vt 2 -0

# normals
vn -1 0 -0
vn 0 0 1
vn 0 -1 -0
vn 0 1 -0
vn 0 0 -1
vn 1 0 -0
vn 0 -0.7071067811865465 0.7071067811865486
vn 0 0.7071067811865481 0.707106781186547
vn -0 0.7071067811865477 -0.7071067811865472
vn 0 -0.7071067811865469 -0.707106781186548

o entity0_brush0
usemtl __TB_empty
f  1/1/1  2/2/1  3/3/1  4/4/1
usemtl __TB_empty
f  5/5/2  3/6/2  2/7/2  6/8/2
usemtl __TB_empty
f  6/9/3  2/10/3  1/11/3  7/12/3
usemtl engine7/portal2Metal
f  8/13/4  4/14/4  3/15/4  5/16/4
usemtl __TB_empty
f  7/8/5  1/7/5  4/6/5  8/5/5
usemtl __TB_empty
f  8/4/6  5/3/6  6/2/6  7/1/6

o entity0_brush1
usemtl __TB_empty
f  9/3/1  10/17/1  11/18/1  12/19/1
usemtl __TB_empty
f  13/20/2  11/21/2  10/6/2  14/5/2
usemtl __TB_empty
f  14/22/3  10/23/3  9/10/3  15/9/3
usemtl __TB_empty
f  16/9/4  12/10/4  11/23/4  13/22/4
usemtl engine7/portal2
f  15/24/5  9/25/5  12/26/5  16/27/5
usemtl __TB_empty
f  16/19/6  13/18/6  14/17/6  15/3/6

o entity0_brush2
usemtl __TB_empty
f  17/4/1  18/28/1  19/29/1  20/30/1
usemtl engine7/portal2
f  21/27/2  19/26/2  18/25/2  22/24/2
usemtl __TB_empty
f  22/31/3  18/32/3  17/11/3  23/12/3
usemtl __TB_empty
f  24/12/4  20/11/4  19/32/4  21/31/4
usemtl __TB_empty
f  23/5/5  17/6/5  20/21/5  24/20/5
usemtl __TB_empty
f  24/30/6  21/29/6  22/28/6  23/4/6

o entity0_brush3
usemtl engine7/portal2
f  25/33/1  26/34/1  27/35/1  28/36/1
usemtl __TB_empty
f  29/37/2  27/21/2  26/6/2  30/38/2
usemtl __TB_empty
f  30/39/3  26/40/3  25/41/3  31/42/3
usemtl __TB_empty
f  32/42/4  28/41/4  27/40/4  29/39/4
usemtl __TB_empty
f  31/38/5  25/6/5  28/21/5  32/37/5
usemtl __TB_empty
f  32/30/6  29/19/6  30/3/6  31/4/6

o entity0_brush4
usemtl __TB_empty
f  33/4/1  34/3/1  35/19/1  36/30/1
usemtl __TB_empty
f  37/43/2  35/20/2  34/5/2  38/44/2
usemtl __TB_empty
f  38/45/3  34/46/3  33/47/3  39/48/3
usemtl __TB_empty
f  40/48/4  36/47/4  35/46/4  37/45/4
usemtl __TB_empty
f  39/44/5  33/5/5  36/20/5  40/43/5
usemtl engine7/portal2
f  40/36/6  37/35/6  38/34/6  39/33/6

o entity0_brush5
usemtl __TB_empty
f  41/49/1  42/50/1  43/51/1  44/52/1  45/53/1  46/54/1  47/55/1  48/56/1
usemtl engine7/plastic1
f  49/57/2  45/58/2  44/59/2  50/60/2
usemtl engine7/plastic1
f  50/60/7  44/59/7  43/61/7  51/62/7
usemtl engine7/plastic1
f  52/63/8  46/64/8  45/65/8  49/66/8
usemtl engine7/plastic1
f  51/63/3  43/64/3  42/67/3  53/68/3
usemtl engine7/plastic1
f  54/68/4  47/67/4  46/64/4  52/63/4
usemtl engine7/plastic1
f  55/69/9  48/70/9  47/71/9  54/72/9
usemtl engine7/plastic1
f  53/62/10  42/61/10  41/59/10  56/60/10
usemtl engine7/plastic1
f  56/60/5  41/59/5  48/58/5  55/57/5
usemtl __TB_empty
f  53/50/6  56/49/6  55/56/6  54/55/6  52/54/6  49/53/6  50/52/6  51/51/6

o entity0_brush6
usemtl __TB_empty
f  57/73/1  58/74/1  59/75/1  60/76/1
usemtl __TB_empty
f  61/76/2  59/77/2  58/78/2  62/73/2
usemtl engine7/portal2Metal
f  62/13/3  58/14/3  57/79/3  63/80/3
usemtl __TB_empty
f  64/81/4  60/82/4  59/11/4  61/12/4
usemtl __TB_empty
f  63/73/5  57/78/5  60/77/5  64/76/5
usemtl __TB_empty
f  64/76/6  61/75/6  62/74/6  63/73/6

o entity0_brush7
usemtl __TB_empty
f  65/83/1  66/84/1  67/85/1  68/86/1
usemtl __TB_empty
f  69/76/2  67/77/2  66/78/2  70/73/2
usemtl engine7/portal2Metal
f  70/87/3  66/88/3  65/15/3  71/16/3
usemtl __TB_empty
f  72/9/4  68/10/4  67/89/4  69/90/4
usemtl __TB_empty
f  71/73/5  65/78/5  68/77/5  72/76/5
usemtl __TB_empty
f  72/86/6  69/85/6  70/84/6  71/83/6

